<svg xmlns="http://www.w3.org/2000/svg" xml:space="preserve" style="fill-rule:evenodd;clip-rule:evenodd;stroke-linejoin:round;stroke-miterlimit:1.41421" viewBox="0 0 32 32"><path d="M.002-.038h32.022v32.155H.002z" style="fill:#282828"/><path d="m11.744 10.44 1.03.911-1.03.912H5.052l-1.03-.912 1.03-.911zm.257 2.05 1.03-.91 1.03.91v5.926l-1.03.911-1.03-.911zm0 8.204 1.03-.911 1.03.911v5.925l-1.03.912-1.03-.912zm-.257 6.153 1.03.912-1.03.911H5.052l-1.03-.911 1.03-.912z" style="fill:#b3b3b3;stroke-width:.121091" transform="translate(1.444)"/><path d="m2.735 20.694 1.03-.911 1.03.911v5.925l-1.03.912-1.03-.912zm0-8.204 1.03-.91 1.03.91v5.926l-1.03.911-1.03-.911z" style="stroke-width:.121091" transform="translate(1.444)"/><path d="m11.744 18.644 1.03.911-1.03.912H5.052l-1.03-.912 1.03-.911z" style="fill:#b3b3b3;stroke-width:.121091" transform="translate(1.444)"/><path d="m24.06 10.537 1.03.911-1.03.912h-6.692l-1.03-.912 1.03-.911z" style="clip-rule:evenodd;fill:#b3b3b3;fill-rule:evenodd;stroke-width:.121091;stroke-linejoin:round;stroke-miterlimit:1.41421" transform="translate(1.444)"/><path d="m24.318 12.588 1.03-.912 1.029.912v5.925l-1.03.911-1.03-.911z" style="clip-rule:evenodd;fill-rule:evenodd;stroke-width:.121091;stroke-linejoin:round;stroke-miterlimit:1.41421" transform="translate(1.444)"/><path d="m24.318 20.791 1.03-.911 1.029.911v5.925l-1.03.912-1.03-.912zm-.258 6.153 1.03.912-1.03.911h-6.692l-1.03-.911 1.03-.912z" style="clip-rule:evenodd;fill:#b3b3b3;fill-rule:evenodd;stroke-width:.121091;stroke-linejoin:round;stroke-miterlimit:1.41421" transform="translate(1.444)"/><path d="m15.052 20.791 1.03-.911 1.029.911v5.925l-1.03.912-1.03-.912z" style="clip-rule:evenodd;fill-rule:evenodd;stroke-width:.121091;stroke-linejoin:round;stroke-miterlimit:1.41421" transform="translate(1.444)"/><path d="m15.052 12.588 1.03-.912 1.029.912v5.925l-1.03.911-1.03-.911zm9.008 6.152 1.03.912-1.03.912h-6.692l-1.03-.912 1.03-.911z" style="clip-rule:evenodd;fill:#b3b3b3;fill-rule:evenodd;stroke-width:.121091;stroke-linejoin:round;stroke-miterlimit:1.41421" transform="translate(1.444)"/><path d="M.002-.038h32v8h-32z" style="fill:#666;stroke-width:1.74637;stroke-dasharray:3.49275,1.74637"/></svg>