<svg xmlns="http://www.w3.org/2000/svg" width="120.945" height="120.945" viewBox="0 0 32 32"><g transform="translate(-87.139 -29.974)"><rect width="30.862" height="30.862" x="87.708" y="30.543" ry="5.189" style="font-variation-settings:&quot;wght&quot;700;fill:#000;stroke:#000;stroke-width:1.1382"/><g style="font-size:36.0315px;font-family:&quot;sans-serif&quot;;-inkscape-font-specification:&quot;sans-serif, @wght=700&quot;;font-variation-settings:&quot;wght&quot;700;fill:#f0f;stroke:none;stroke-width:1.4591"><path d="M104.685 56.877h-17.98v-3.783l6.45-6.522q1.945-2.017 3.134-3.35 1.19-1.37 1.73-2.45.54-1.118.54-2.379 0-1.549-.864-2.306-.83-.756-2.27-.756-1.478 0-2.883.684-1.405.685-2.954 1.946l-2.955-3.495q1.117-.973 2.342-1.802 1.261-.828 2.883-1.333 1.657-.54 3.963-.54 2.522 0 4.324.936 1.837.901 2.81 2.487 1.01 1.549 1.01 3.53 0 2.127-.866 3.892-.828 1.766-2.45 3.495-1.585 1.73-3.855 3.82l-3.315 3.098v.252h11.206z" aria-label="2" style="stroke:none" transform="translate(7.48 2.14)"/></g></g></svg>