<svg xmlns="http://www.w3.org/2000/svg" width="120.945" height="120.945" viewBox="0 0 32 32"><g transform="translate(-128.685 -31.151)"><rect width="30.862" height="30.862" x="129.254" y="31.72" ry="5.189" style="font-variation-settings:&quot;wght&quot;700;fill:#000;stroke:#000;stroke-width:1.1382"/><g style="font-size:36.0315px;font-family:&quot;sans-serif&quot;;-inkscape-font-specification:&quot;sans-serif, @wght=700&quot;;font-variation-settings:&quot;wght&quot;700;fill:#f0f;stroke:none;stroke-width:1.4591"><path d="M136.572 36.736q0 1.765-.756 3.063-.721 1.297-1.982 2.125-1.225.83-2.81 1.225v.109q3.098.36 4.684 1.873 1.62 1.514 1.62 4.072 0 2.234-1.116 4.035-1.081 1.766-3.387 2.81-2.27 1.01-5.873 1.01-2.126 0-3.964-.36-1.837-.361-3.459-1.046V51.04q1.658.83 3.46 1.261 1.837.433 3.386.433 2.919 0 4.072-1.009 1.189-1.009 1.189-2.847 0-1.08-.54-1.801-.541-.757-1.91-1.117-1.333-.396-3.747-.396h-1.946v-4.18h1.982q2.378 0 3.603-.432 1.26-.469 1.693-1.226.469-.792.469-1.801 0-1.37-.865-2.126-.829-.793-2.81-.793-1.226 0-2.235.325-1.008.288-1.837.72-.793.433-1.405.829l-2.523-3.747q1.514-1.081 3.531-1.802 2.054-.72 4.865-.72 3.963 0 6.27 1.62 2.341 1.586 2.341 4.505" aria-label="3" style="stroke:none" transform="translate(16.256 3.317)"/></g></g></svg>