<svg xmlns="http://www.w3.org/2000/svg" width="120.945" height="120.945" viewBox="0 0 32 32"><g transform="translate(-87.139 -64.538)"><rect width="30.862" height="30.862" x="87.708" y="65.107" ry="5.189" style="font-variation-settings:&quot;wght&quot;700;fill:#000;stroke:#000;stroke-width:1.1382"/><g style="font-size:36.0315px;font-family:&quot;sans-serif&quot;;-inkscape-font-specification:&quot;sans-serif, @wght=700&quot;;font-variation-settings:&quot;wght&quot;700;fill:#f0f;stroke:none;stroke-width:1.4591"><path d="M96.11 75.065q2.341 0 4.179.9 1.837.902 2.882 2.631 1.081 1.73 1.081 4.288 0 2.774-1.153 4.792t-3.459 3.099q-2.27 1.08-5.657 1.08-2.017 0-3.819-.36-1.766-.36-3.099-1.044v-4.684q1.333.684 3.207 1.189 1.874.468 3.531.468 1.622 0 2.703-.432 1.117-.433 1.693-1.334.577-.9.577-2.306 0-1.91-1.262-2.882-1.26-1.009-3.89-1.009-1.01 0-2.09.216-1.082.18-1.802.36l-2.162-1.153.973-13.115h13.944v4.612h-9.188l-.469 5.044q.613-.108 1.298-.216.72-.144 1.981-.144z" aria-label="5" style="stroke:none" transform="translate(7.48 1.726)"/></g></g></svg>