<svg xmlns="http://www.w3.org/2000/svg" width="120.945" height="120.945" viewBox="0 0 32 32"><g transform="translate(-128.685 -65.715)"><rect width="30.862" height="30.862" x="129.254" y="66.284" ry="5.189" style="font-variation-settings:&quot;wght&quot;700;fill:#000;stroke:#000;stroke-width:1.1382"/><g style="font-size:36.0315px;font-family:&quot;sans-serif&quot;;-inkscape-font-specification:&quot;sans-serif, @wght=700&quot;;font-variation-settings:&quot;wght&quot;700;fill:#f0f;stroke:none;stroke-width:1.4591"><path d="M119.35 80.722q0-2.234.324-4.396t1.116-4.071q.83-1.946 2.27-3.423 1.478-1.514 3.712-2.342 2.27-.865 5.477-.865.756 0 1.765.072 1.009.036 1.694.18v4.36q-.685-.18-1.514-.252-.792-.108-1.585-.108-2.414 0-4 .576-1.549.577-2.45 1.658-.9 1.08-1.333 2.558-.396 1.441-.468 3.243h.216q.504-.865 1.225-1.514.757-.684 1.837-1.08 1.081-.397 2.523-.397 2.27 0 3.891.973 1.658.937 2.558 2.774.901 1.802.901 4.396 0 2.775-1.08 4.792-1.046 2.018-3.027 3.099Q131.456 92 128.753 92q-1.981 0-3.71-.685-1.694-.684-2.991-2.053-1.262-1.406-1.982-3.532-.72-2.125-.72-5.008m9.295 6.918q1.586 0 2.595-1.08 1.008-1.118 1.008-3.424 0-1.873-.864-2.954-.865-1.081-2.63-1.081-1.19 0-2.09.54-.901.505-1.406 1.333-.504.829-.504 1.694 0 .9.252 1.801.252.865.72 1.586.505.72 1.226 1.153.72.432 1.693.432" aria-label="6" style="stroke:none" transform="translate(16.256 2.903)"/></g></g></svg>