<svg xmlns="http://www.w3.org/2000/svg" width="120.945" height="120.945" viewBox="0 0 32 32"><g transform="translate(-87.139 -98.707)"><rect width="30.862" height="30.862" x="87.708" y="99.276" ry="5.189" style="font-variation-settings:&quot;wght&quot;700;fill:#000;stroke:#000;stroke-width:1.1382"/><g style="font-size:36.0315px;font-family:&quot;sans-serif&quot;;-inkscape-font-specification:&quot;sans-serif, @wght=700&quot;;font-variation-settings:&quot;wght&quot;700;fill:#f0f;stroke:none;stroke-width:1.4591"><path d="M95.677 99.775q2.234 0 4.071.685 1.874.684 2.991 2.054 1.153 1.369 1.153 3.459 0 1.549-.612 2.738-.613 1.153-1.658 2.018-1.009.864-2.342 1.513 1.37.72 2.594 1.693 1.261.937 2.018 2.234.793 1.262.793 2.991 0 2.126-1.153 3.711-1.117 1.586-3.171 2.45-2.018.865-4.684.865-2.883 0-4.9-.829-2.018-.828-3.1-2.378-1.044-1.549-1.044-3.675 0-1.765.649-3.062.684-1.298 1.801-2.234 1.117-.973 2.486-1.622-1.153-.72-2.09-1.621-.936-.937-1.513-2.09-.54-1.19-.54-2.739 0-2.053 1.153-3.422 1.153-1.37 3.026-2.054 1.91-.685 4.072-.685m-4 19.205q0 1.405.973 2.306 1.01.9 2.955.9 2.018 0 3.026-.864 1.01-.865 1.01-2.306 0-.973-.577-1.694-.577-.756-1.441-1.333-.83-.612-1.73-1.117l-.468-.252q-1.117.505-1.982 1.153-.829.649-1.297 1.441-.469.757-.469 1.766m3.964-15.241q-1.333 0-2.234.684-.865.685-.865 1.946 0 .865.432 1.55.433.648 1.154 1.152.72.469 1.549.901.829-.396 1.513-.865.72-.468 1.153-1.117.433-.684.433-1.621 0-1.261-.901-1.946-.865-.684-2.234-.684" aria-label="8" style="stroke:none" transform="translate(7.48 1.726)"/></g></g></svg>