<svg xmlns="http://www.w3.org/2000/svg" width="120.945" height="120.945" viewBox="0 0 32 32"><g transform="translate(-128.685 -99.883)"><rect width="30.862" height="30.862" x="129.254" y="100.452" ry="5.189" style="font-variation-settings:&quot;wght&quot;700;fill:#000;stroke:#000;stroke-width:1.1382"/><g style="font-size:36.0315px;font-family:&quot;sans-serif&quot;;-inkscape-font-specification:&quot;sans-serif, @wght=700&quot;;font-variation-settings:&quot;wght&quot;700;fill:#f0f;stroke:none;stroke-width:1.4591"><path d="M137.51 111.071q0 2.198-.325 4.396-.324 2.162-1.153 4.107-.793 1.91-2.27 3.423-1.441 1.478-3.711 2.342-2.234.83-5.441.83-.757 0-1.766-.073-1.009-.036-1.693-.18v-4.36q.72.144 1.513.252.793.108 1.586.108 2.414 0 3.963-.576 1.585-.577 2.486-1.658.9-1.08 1.297-2.558.433-1.477.505-3.243h-.216q-.505.83-1.226 1.514-.684.684-1.765 1.08-1.045.397-2.702.397-2.198 0-3.82-.937-1.621-.973-2.522-2.774-.9-1.838-.9-4.432 0-2.81 1.044-4.792 1.081-2.018 3.063-3.063 1.982-1.08 4.648-1.08 1.982 0 3.675.684 1.73.684 2.99 2.09 1.298 1.369 2.018 3.495.721 2.125.721 5.008zm-9.297-6.918q-1.585 0-2.594 1.08-1.01 1.082-1.01 3.424 0 1.874.866 2.954.864 1.081 2.63 1.081 1.225 0 2.09-.54.9-.54 1.405-1.333.504-.829.504-1.694 0-.9-.252-1.765-.252-.901-.757-1.622-.468-.72-1.189-1.153-.72-.432-1.693-.432" aria-label="9" style="stroke:none" transform="translate(16.256 2.903)"/></g></g></svg>