<svg width="32mm" height="117.859" viewBox="0 0 32 31.184" xmlns="http://www.w3.org/2000/svg">
    <path style="fill:#e6e6e6;stroke-width:.501581" d="M44.53 99.315a4.04 4.04 0 0 0-4.05 4.05v22.056a4.04 4.04 0 0 0 4.05 4.05H67.1a4.04 4.04 0 0 0 4.05-4.05v-19.05l-6.205-7.056zm1.314 1.756h1.532v5.753a4.018 4.018 0 0 0 4.027 4.026h8.65a4.018 4.018 0 0 0 4.027-4.026v-5.753h.472l4.812 5.472v17.594a3.568 3.568 0 0 1-3.15 3.55c.004-.072.008-.144.008-.217v-10.28a4.018 4.018 0 0 0-4.027-4.027H49.088a4.018 4.018 0 0 0-4.027 4.027v10.28c0 .054.004.106.006.158a3.568 3.568 0 0 1-2.801-3.491v-19.488a3.57 3.57 0 0 1 3.578-3.578zm3.292 0h7.576v5.153h2.57v-5.153h3.13v4.893c0 1.773-1.427 3.2-3.2 3.2h-6.876a3.194 3.194 0 0 1-3.2-3.2zm1.162 13.902h10.773a3.302 3.302 0 0 1 3.31 3.31v8.448c0 .343-.052.673-.148.984H47.136a3.33 3.33 0 0 1-.147-.984v-8.449a3.302 3.302 0 0 1 3.309-3.31z" transform="translate(-39.15 -98.287)"/>
    <path style="fill:#000;stroke-width:.501581" d="M43.2 98.287a4.04 4.04 0 0 0-4.05 4.05v22.057a4.04 4.04 0 0 0 4.05 4.05h22.57a4.04 4.04 0 0 0 4.05-4.05v-19.051l-6.205-7.056zm1.314 1.757h1.533v5.752a4.018 4.018 0 0 0 4.026 4.027h8.651a4.018 4.018 0 0 0 4.027-4.027v-5.752h.471l4.812 5.472v17.593a3.568 3.568 0 0 1-3.15 3.55c.005-.071.008-.143.008-.216v-10.28a4.018 4.018 0 0 0-4.026-4.027H47.758a4.018 4.018 0 0 0-4.026 4.027v10.28c0 .053.003.106.005.158a3.568 3.568 0 0 1-2.801-3.492v-19.488a3.57 3.57 0 0 1 3.578-3.577zm3.292 0h7.577v5.153h2.57v-5.153h3.13v4.892a3.193 3.193 0 0 1-3.2 3.201h-6.876a3.194 3.194 0 0 1-3.2-3.2zm1.162 13.901h10.773a3.302 3.302 0 0 1 3.31 3.31v8.449c0 .343-.052.673-.148.983H45.807a3.33 3.33 0 0 1-.148-.983v-8.45a3.302 3.302 0 0 1 3.31-3.309z" transform="translate(-39.15 -98.287)"/>
</svg>
