<svg xmlns="http://www.w3.org/2000/svg" xmlns:xlink="http://www.w3.org/1999/xlink" xml:space="preserve" id="Ebene_1" width="32" height="32" x="0" y="0" version="1.1"><style id="style824" type="text/css">.st2{clip-path:url(#SVGID_4_);fill:#039}</style><g id="g863" transform="translate(0 4.783)scale(.20357)"><g id="g861"><defs id="defs842"><path id="SVGID_1_" d="M0-.598h157.197v111.402H0z"/></defs><clipPath id="SVGID_2_"><use xlink:href="#SVGID_1_" id="use844" width="100%" height="100%" x="0" y="0" style="overflow:visible"/></clipPath><g id="g859" clip-path="url(#SVGID_2_)" style="clip-path:url(#SVGID_2_)"><defs id="defs848"><path id="SVGID_3_" d="M0-.598h157.197v111.402H0z"/></defs><clipPath id="SVGID_4_"><use xlink:href="#SVGID_3_" id="use850" width="100%" height="100%" x="0" y="0" style="overflow:visible"/></clipPath><path id="path853" d="M.607 75.285c2.957-1.872 10.882 6.629 21.713 14.362 7.039 5.026 18.661 8.853 28.952 8.143 16.757-1.156 23.71-4.386 37.85-11.763 11.088-5.785 22.27-13.948 31.82-19.767 5.646-3.441 12.449-6.567 20.107-8.932 9.948-3.071 16.148-.501 16.148.494 0 1.708-11.752 7.285-20.688 13.323-11.49 7.764-16.879 11.531-19.509 13.257-7.518 4.935-20.387 13.411-25.948 16.092-8.695 4.192-18.633 8.229-30.899 9.782-16.073 2.035-33.311-1.882-44.718-10.558C1.721 89.287-1.548 76.65.607 75.285" class="st2" clip-path="url(#SVGID_4_)"/><path id="path855" d="M23.112 84.347s12.419-32.107 14.23-36.798c5.747-14.886 8.213-22.798 17.158-26.123 4.664-1.734 13.022-.163 16.008.066 4.411.339 5.467-.955 6.464-3.449 2.122-5.303 3.954-9.546 3.664-10.414-.073-.219-1.474-.592-1.639-1.253-.096-.386 2.626-6.609 3.278-6.963.676-.365 23.721 8.409 23.914 9.374.179.896-1.929 6.653-2.797 7.135-.678.377-1.84-.767-2.7-.289-.607.337-1.472 2.853-4.242 9.931-.868 2.218-.169 4.714 2.218 6.653 3.085 2.507 9.103 6.307 11.956 11.282 3.761 6.557 1.929 10.501-3.568 24.202l-.385 1.061s-9.427 7.917-26.617 16.06c-10.066 4.768-19.451 7.009-26.897 7.863-1.202.138-4.739-2.688-7.6-2.967-2.857-.28-10.651.869-11.309.638-5.459-1.923-11.136-6.009-11.136-6.009" class="st2" clip-path="url(#SVGID_4_)"/><path id="path857" d="M74.562 38.485S61.939 31.776 57 35.512c-4.817 3.645-22.751 54.866-22.751 54.866s2.231.89 6.573 1.863c2.821.632 5.248.791 8.143.746a41.738 41.738 0 0 0 4.192-.279z" clip-path="url(#SVGID_4_)" style="clip-path:url(#SVGID_4_);fill:#fc0"/></g></g></g></svg>