<svg xmlns="http://www.w3.org/2000/svg" xmlns:xlink="http://www.w3.org/1999/xlink" xml:space="preserve" id="Ebene_1" x="0" y="0" viewBox="0 0 567.001 111.458"><style>.st2{fill:#039;clip-path:url(#SVGID_4_)}</style><path id="Text" d="M207.906 20.226q6.277 0 11.526 1.814 5.248 1.816 9.074 4.66 3.826 2.846 5.984 6.278 2.157 3.434 2.256 6.573 0 .883-.638 1.521t-1.422.638h-12.851q-1.375 0-2.208-.392-.834-.391-1.717-1.177a41 41 0 0 1-.932-.981q-.638-.686-1.815-1.423-1.177-.735-2.943-1.275t-4.316-.54q-1.865.001-3.581.245-1.717.246-3.041.785-1.326.54-2.158 1.521-.835.982-.834 2.453c.001 1.471.31 1.799.932 2.453q.931.982 3.139 1.814 2.207.835 5.837 1.619 3.627.786 9.025 1.864 5.394 1.081 9.417 2.747 4.02 1.668 6.72 4.169a15.8 15.8 0 0 1 4.022 5.886q1.324 3.385 1.324 7.995 0 5.003-2.256 8.927-2.257 3.923-6.328 6.72t-9.614 4.268-12.115 1.472q-6.671 0-12.165-1.767-5.494-1.765-9.466-4.659-3.974-2.894-6.229-6.523-2.258-3.628-2.354-7.357 0-.883.638-1.521.637-.638 1.422-.638h12.851q1.372 0 2.158.343.784.345 1.57 1.03.39.394 1.177 1.275.785.884 2.109 1.814 1.324.934 3.335 1.619 2.01.687 4.954.687 5.198 0 8.682-1.128 3.481-1.127 3.482-4.071 0-1.47-1.275-2.452-1.276-.98-3.826-1.815-2.552-.832-6.523-1.618a487 487 0 0 1-9.369-1.962q-10.105-2.157-14.764-7.21-4.66-5.051-4.66-13.489 0-4.217 1.913-8.044 1.913-3.826 5.542-6.769 3.63-2.943 8.78-4.66 5.154-1.718 11.531-1.719m57.093 10.595q0 1.08-.785 1.864-.786.786-1.864.785h-12.36q-1.08 0-1.864-.785-.785-.784-.785-1.864v-9.908q-.001-1.078.785-1.864.784-.785 1.864-.785h12.36q1.078 0 1.864.785.785.786.785 1.864zm0 56.407q0 1.08-.785 1.863-.786.786-1.864.785h-12.36q-1.08 0-1.864-.785-.785-.784-.785-1.863V41.513q-.001-1.078.785-1.864.784-.784 1.864-.785h12.36q1.078 0 1.864.785.785.786.785 1.864zm35.608 9.515q3.727 0 6.573-1.717 2.844-1.718 2.845-5.15v-6.867a28 28 0 0 1-1.913 2.109q-1.031 1.031-2.551 1.864-1.521.835-3.728 1.373-2.208.54-5.445.539-4.415 0-8.338-1.324-3.924-1.324-6.867-4.07c-2.943-2.746-3.548-4.12-4.758-6.867q-1.816-4.12-2.011-9.712a53 53 0 0 1-.098-3.482q0-2.011.098-3.482.195-5.59 2.011-9.761 1.814-4.168 4.758-6.867 2.942-2.696 6.867-4.071 3.924-1.373 8.338-1.373 3.237 0 5.592.588 2.354.589 4.022 1.472 1.666.882 2.747 1.913a18 18 0 0 1 1.766 1.913v-2.256q0-1.078.785-1.864.784-.784 1.864-.785h11.379q1.078 0 1.864.785.784.786.785 1.864v47.774q0 5.493-2.011 9.663-2.011 4.169-5.542 6.965c-3.531 2.796-5.167 3.253-8.437 4.169q-4.906 1.373-10.791 1.374-7.653 0-12.508-1.913c-4.855-1.913-5.772-2.813-7.603-4.61q-2.748-2.699-3.826-5.642-1.08-2.943-1.177-5.101-.099-1.08.735-1.864.833-.784 1.913-.784H290.7q2.06-.001 3.041 1.962.686 1.274 2.109 2.256 1.42.978 4.757.979m-8.632-35.806q-.197 1.472-.196 2.403-.001.933.196 2.404.293 3.435 2.403 5.689 2.108 2.257 6.425 2.256 4.021 0 6.131-2.207 2.107-2.206 2.6-5.052a19.7 19.7 0 0 0 0-6.181q-.394-2.844-2.551-5.003-2.159-2.157-6.18-2.158-4.22 0-6.376 2.208-2.158 2.209-2.452 5.641m98.882 26.291q0 1.08-.785 1.863-.786.786-1.864.785h-12.36q-1.08 0-1.864-.785-.786-.784-.785-1.863v-24.82q0-4.216-2.06-6.769-2.06-2.55-6.474-2.551c-4.414-.001-5.086.851-6.426 2.551q-2.011 2.552-2.011 6.769v24.819q0 1.08-.785 1.863-.786.785-1.864.785h-12.36q-1.08 0-1.864-.785-.785-.784-.785-1.863V41.513q-.001-1.078.785-1.864.784-.784 1.864-.785h11.87q1.078 0 1.864.785.784.786.785 1.864v2.256q.785-.979 1.962-2.06 1.176-1.078 2.845-1.913 1.667-.833 3.875-1.373 2.207-.54 5.15-.54 4.708 0 8.633 1.324 3.923 1.325 6.72 4.071 2.795 2.748 4.365 6.965 1.568 4.22 1.569 10.006zm7.554-11.87q0-6.474 4.954-10.692t16.137-6.181l11.477-1.962q0-2.354-1.275-3.875-1.276-1.52-4.414-1.521-2.255 0-3.482.638-1.226.639-1.814 1.128-.883.786-1.668.981-.785.197-1.863.196h-12.459q-.981 0-1.619-.588-.638-.589-.54-1.57.196-2.255 1.962-4.708 1.765-2.452 4.855-4.513 3.09-2.059 7.358-3.434 4.267-1.373 9.27-1.373 5.983 0 10.398 1.471 4.414 1.472 7.309 4.071 2.893 2.6 4.268 6.18 1.373 3.582 1.373 7.896v29.725q0 1.08-.785 1.863-.785.785-1.863.785h-12.359q-1.081 0-1.865-.785-.785-.784-.785-1.863V84.48c-1.568 1.962-3.516 3.517-5.836 4.66q-3.484 1.717-9.172 1.717-4.22 0-7.504-1.178-3.287-1.178-5.494-3.237a13.9 13.9 0 0 1-3.384-4.905q-1.181-2.844-1.18-6.179m22.366 2.255q2.157 0 4.021-.735c1.864-.735 2.32-1.16 3.238-2.011a9.4 9.4 0 0 0 2.158-2.992 8.8 8.8 0 0 0 .783-3.679l-9.023 1.373q-2.65.491-4.268 1.668-1.62 1.178-1.619 3.041 0 1.864 1.227 2.6 1.225.735 3.483.735m56.406 9.615q-.001 1.08-.785 1.863-.786.785-1.863.785h-12.36q-1.081 0-1.864-.785-.786-.784-.785-1.863V22.875q0-1.078.785-1.864.784-.784 1.864-.785h12.36q1.078 0 1.863.785.784.786.785 1.864zm89.523-.589q.294.393.295 1.079 0 .883-.638 1.521a2.08 2.08 0 0 1-1.521.638h-15.598q-1.375 0-2.257-.589-.882-.588-1.766-1.667l-18.54-23.348v22.955q-.001 1.08-.785 1.863-.786.785-1.864.785h-12.851q-1.08 0-1.864-.785-.784-.784-.784-1.863V23.856q0-1.078.784-1.864.784-.784 1.864-.785h12.851q1.078 0 1.864.785.784.786.785 1.864v20.699l17.265-21.189a21 21 0 0 1 1.275-1.374q.783-.784 2.648-.785h15.304q.883 0 1.521.638t.638 1.521q0 .687-.294 1.079l-24.23 29.625z" style="fill:#039"/><defs><path id="SVGID_1_" d="M0-.598h157.197v111.402H0z"/></defs><clipPath id="SVGID_2_"><use xlink:href="#SVGID_1_" style="overflow:visible"/></clipPath><g style="clip-path:url(#SVGID_2_)"><defs><path id="SVGID_3_" d="M0-.598h157.197v111.402H0z"/></defs><clipPath id="SVGID_4_"><use xlink:href="#SVGID_3_" style="overflow:visible"/></clipPath><path d="M.607 75.285c2.957-1.872 10.882 6.629 21.713 14.362 7.039 5.026 18.661 8.853 28.952 8.143 16.757-1.156 23.71-4.386 37.85-11.763 11.088-5.785 22.27-13.948 31.82-19.767 5.646-3.441 12.449-6.567 20.107-8.932 9.948-3.071 16.148-.501 16.148.494 0 1.708-11.752 7.285-20.688 13.323-11.49 7.764-16.879 11.531-19.509 13.257-7.518 4.935-20.387 13.411-25.948 16.092-8.695 4.192-18.633 8.229-30.899 9.782-16.073 2.035-33.311-1.882-44.718-10.558C1.721 89.287-1.548 76.65.607 75.285" class="st2"/><path d="M23.112 84.347s12.419-32.107 14.23-36.798c5.747-14.886 8.213-22.798 17.158-26.123 4.664-1.734 13.022-.163 16.008.066 4.411.339 5.467-.955 6.464-3.449 2.122-5.303 3.954-9.546 3.664-10.414-.073-.219-1.474-.592-1.639-1.253-.096-.386 2.626-6.609 3.278-6.963.676-.365 23.721 8.409 23.914 9.374.179.896-1.929 6.653-2.797 7.135-.678.377-1.84-.767-2.7-.289-.607.337-1.472 2.853-4.242 9.931-.868 2.218-.169 4.714 2.218 6.653 3.085 2.507 9.103 6.307 11.956 11.282 3.761 6.557 1.929 10.501-3.568 24.202l-.385 1.061s-9.427 7.917-26.617 16.06c-10.066 4.768-19.451 7.009-26.897 7.863-1.202.138-4.739-2.688-7.6-2.967-2.857-.28-10.651.869-11.309.638-5.459-1.923-11.136-6.009-11.136-6.009" class="st2"/><path d="M74.562 38.485S61.939 31.776 57 35.512c-4.817 3.645-22.751 54.866-22.751 54.866s2.231.89 6.573 1.863c2.821.632 5.248.791 8.143.746a42 42 0 0 0 4.192-.279z" style="clip-path:url(#SVGID_4_);fill:#fc0"/></g></svg>